HIERARCHY
ROOT Hips
{
	OFFSET -0.001795 -0.223333 0.028219
	CHANNELS 6 Xposition Yposition Zposition Zrotation Yrotation Xrotation 
	JOINT LeftUpLeg
	{
		OFFSET 0.069520 -0.091406 -0.006815
		CHANNELS 3 Zrotation Yrotation Xrotation
		JOINT LeftLeg
		{
			OFFSET 0.034277 -0.375199 -0.004496
			CHANNELS 3 Zrotation Yrotation Xrotation
			JOINT LeftFoot
			{
				OFFSET -0.013596 -0.397961 -0.043693
				CHANNELS 3 Zrotation Yrotation Xrotation
				JOINT LeftToe
				{
					OFFSET 0.026358 -0.055791 0.119288
					CHANNELS 3 Zrotation Yrotation Xrotation
					End Site
					{
						OFFSET 0.000000 0.000000 0.000000
					}
				}
			}
		}
	}
	JOINT RightUpLeg
	{
		OFFSET -0.067670 -0.090522 -0.004320
		CHANNELS 3 Zrotation Yrotation Xrotation
		JOINT RightLeg
		{
			OFFSET -0.038290 -0.382569 -0.008850
			CHANNELS 3 Zrotation Yrotation Xrotation
			JOINT RightFoot
			{
				OFFSET 0.015774 -0.398415 -0.042312
				CHANNELS 3 Zrotation Yrotation Xrotation
				JOINT RightToe
				{
					OFFSET -0.025372 -0.048144 0.123348
					CHANNELS 3 Zrotation Yrotation Xrotation
					End Site
					{
						OFFSET 0.000000 0.000000 0.000000
					}
				}
			}
		}
	}
	JOINT Spine
	{
		OFFSET -0.002533 0.108963 -0.026696
		CHANNELS 3 Zrotation Yrotation Xrotation
		JOINT Spine1
		{
			OFFSET 0.005487 0.135180 0.001092
			CHANNELS 3 Zrotation Yrotation Xrotation
			JOINT Spine2
			{
				OFFSET 0.001457 0.052922 0.025425
				CHANNELS 3 Zrotation Yrotation Xrotation
				JOINT Neck
				{
					OFFSET -0.002778 0.213870 -0.042857
					CHANNELS 3 Zrotation Yrotation Xrotation
					JOINT Head
					{
						OFFSET 0.005152 0.064970 0.051349
						CHANNELS 3 Zrotation Yrotation Xrotation
						End Site
						{
							OFFSET 0.000000 0.000000 0.000000
						}
					}
				}
				JOINT LeftShoulder
				{
					OFFSET 0.078845 0.121749 -0.034090
					CHANNELS 3 Zrotation Yrotation Xrotation
					JOINT LeftArm
					{
						OFFSET 0.090977 0.030469 -0.008868
						CHANNELS 3 Zrotation Yrotation Xrotation
						JOINT LeftForeArm
						{
							OFFSET 0.259612 -0.012772 -0.027456
							CHANNELS 3 Zrotation Yrotation Xrotation
							JOINT LeftHand
							{
								OFFSET 0.249234 0.008986 -0.001171
								CHANNELS 3 Zrotation Yrotation Xrotation
								End Site
								{
									OFFSET 0.000000 0.000000 0.000000
								}
							}
						}
					}
				}
				JOINT RightShoulder
				{
					OFFSET -0.081759 0.118833 -0.038615
					CHANNELS 3 Zrotation Yrotation Xrotation
					JOINT RightArm
					{
						OFFSET -0.096012 0.032551 -0.009143
						CHANNELS 3 Zrotation Yrotation Xrotation
						JOINT RightForeArm
						{
							OFFSET -0.253742 -0.013329 -0.021401
							CHANNELS 3 Zrotation Yrotation Xrotation
							JOINT RightHand
							{
								OFFSET -0.255298 0.007772 -0.005559
								CHANNELS 3 Zrotation Yrotation Xrotation
								End Site
								{
									OFFSET 0.000000 0.000000 0.000000
								}
							}
						}
					}
				}
			}
		}
	}
}
MOTION
Frames: 10
Frame Time: 0.050000
-0.002673 0.947948 -0.014228 -0.993896 3.931912 3.111813 5.543063 -0.012573 3.854646 -2.222321 0.340247 -10.445623 0.012311 5.425992 12.981242 0.000000 0.000000 0.000000 -1.955159 -0.332835 4.287755 -1.322382 -0.387298 -9.930708 -1.259470 -7.453084 14.550279 0.000000 0.000000 0.000000 -4.727870 0.070514 -0.707115 4.999668 -0.467437 -25.165303 -3.332751 -7.229229 30.814647 -0.823141 1.487867 -31.750205 0.000000 0.000000 0.000000 -15.579219 -1.606632 1.082567 -48.222792 -18.296558 -1.172414 -113.017403 -56.275177 89.550772 0.000000 0.000000 0.000000 2.535125 4.121148 1.268014 43.762198 16.562168 -0.897337 -110.015647 49.999246 -61.794178 0.000000 0.000000 0.000000 
-0.002883 0.947588 -0.015194 -0.952226 4.629190 3.344770 5.638927 -0.055710 3.224581 -2.336422 0.329688 -10.110917 -0.263910 4.999121 12.772791 0.000000 0.000000 0.000000 -1.970195 -0.309889 3.995174 -1.218487 -0.384814 -9.788717 -1.625616 -8.001363 14.490622 0.000000 0.000000 0.000000 -4.778442 0.071731 -0.712423 4.881606 -0.433947 -25.119344 -3.122994 -7.063148 30.559208 -1.357703 1.888842 -32.158297 0.000000 0.000000 0.000000 -15.173016 -1.561710 0.908780 -48.327322 -17.744857 -1.329193 -109.978031 -56.314218 85.638387 0.000000 0.000000 0.000000 2.976744 4.174907 1.294394 44.459417 16.532304 -0.854430 -110.804714 50.129738 -62.113206 0.000000 0.000000 0.000000 
-0.003083 0.947476 -0.016311 -0.821620 5.200940 3.549819 5.576160 -0.074810 2.897495 -2.372649 0.322651 -10.222257 -0.552331 4.630005 12.834411 0.000000 0.000000 0.000000 -2.151020 -0.276453 3.697038 -1.019584 -0.382637 -9.614889 -1.929559 -8.461329 14.455871 0.000000 0.000000 0.000000 -4.937719 0.074765 -0.449880 4.953625 -0.424023 -25.477187 -2.905603 -6.894465 30.621987 -1.826763 2.229100 -32.498573 0.000000 0.000000 0.000000 -15.063278 -1.392602 0.709936 -48.784364 -17.560036 -1.380398 -104.685064 -56.455716 79.709849 0.000000 0.000000 0.000000 3.557204 4.554637 1.444338 44.959589 16.691953 -0.779142 -109.713330 50.742660 -61.335252 0.000000 0.000000 0.000000 
-0.003485 0.947300 -0.017532 -0.847686 5.590827 3.514099 5.889480 -0.098696 2.945953 -2.779428 0.319423 -10.509107 -0.774693 4.356497 12.934318 0.000000 0.000000 0.000000 -2.271048 -0.290291 3.883783 -0.639149 -0.412655 -9.925339 -2.069919 -8.686254 14.580515 0.000000 0.000000 0.000000 -4.970700 0.073627 -0.342349 4.754887 -0.376994 -25.414972 -2.413842 -6.068331 30.769987 -2.105212 2.553420 -32.750334 0.000000 0.000000 0.000000 -14.808792 -2.174282 0.889040 -49.277143 -17.638167 -1.318817 -101.692912 -57.317497 76.942964 0.000000 0.000000 0.000000 4.420303 5.317660 1.786091 45.648814 17.123223 -0.590869 -107.341547 52.125753 -59.950702 0.000000 0.000000 0.000000 
-0.004027 0.947379 -0.018617 -0.970815 5.719163 3.644201 6.062750 -0.117600 2.830604 -2.776389 0.316835 -10.753682 -0.847540 4.304189 13.067619 0.000000 0.000000 0.000000 -2.266186 -0.261548 3.556196 -0.326141 -0.411536 -9.719755 -2.132685 -8.780265 14.587461 0.000000 0.000000 0.000000 -5.041407 0.076580 -0.246370 4.601482 -0.346921 -25.272185 -1.846040 -5.355026 30.502054 -2.145841 2.713000 -32.974798 0.000000 0.000000 0.000000 -14.937458 -2.087341 0.666765 -49.361051 -17.801811 -1.206926 -104.122229 -58.626681 80.409598 0.000000 0.000000 0.000000 5.399376 6.492212 2.304001 46.650282 17.390292 -0.419860 -104.606867 55.421547 -60.668931 0.000000 0.000000 0.000000 
-0.004762 0.946930 -0.019539 -0.921593 5.690007 3.351711 6.029242 -0.099966 3.204270 -2.742277 0.317245 -10.940874 -0.847572 4.288765 13.034307 0.000000 0.000000 0.000000 -2.311843 -0.261789 3.568232 -0.278648 -0.389775 -9.275316 -2.175011 -8.798628 14.222615 0.000000 0.000000 0.000000 -5.408144 0.076278 -0.167994 4.574100 -0.332396 -25.446533 -0.983299 -4.222014 31.007510 -2.494786 3.060479 -32.651182 0.000000 0.000000 0.000000 -15.361503 -2.410424 0.599879 -48.995425 -19.097613 -0.726974 -109.644359 -60.922661 88.334226 0.000000 0.000000 0.000000 6.371439 7.926764 3.008735 46.869526 16.978056 -0.597141 -101.848161 60.462393 -63.128178 0.000000 0.000000 0.000000 
-0.005394 0.946608 -0.020277 -1.102090 6.281684 3.103161 6.296816 -0.131721 2.990807 -2.705649 0.308474 -10.398480 -1.046254 3.910650 12.672016 0.000000 0.000000 0.000000 -2.196835 -0.290115 3.750740 0.045162 -0.394846 -9.092223 -2.441963 -9.194541 14.150328 0.000000 0.000000 0.000000 -5.339399 0.071736 0.128369 4.489209 -0.328297 -25.016165 -0.477635 -3.356533 30.305046 -2.560334 3.291885 -32.454666 0.000000 0.000000 0.000000 -15.369559 -2.271461 0.233038 -49.043352 -20.328973 -0.108220 -118.217183 -62.257075 98.842420 0.000000 0.000000 0.000000 7.053577 9.159511 3.665308 47.289457 15.872681 -0.902681 -99.037219 66.060999 -66.065658 0.000000 0.000000 0.000000 
-0.005643 0.945908 -0.020926 -1.170373 6.611714 3.033731 6.261421 -0.135948 2.954276 -2.439730 0.302982 -10.398478 -1.143551 3.701698 12.427496 0.000000 0.000000 0.000000 -2.235262 -0.293536 3.775193 0.330953 -0.403309 -9.005653 -2.613302 -9.436056 13.967064 0.000000 0.000000 0.000000 -5.234639 0.069758 0.319278 4.358567 -0.285537 -25.171344 -0.086182 -2.854561 30.350311 -2.303495 3.279596 -32.476772 0.000000 0.000000 0.000000 -15.722159 -2.629090 0.239840 -49.107312 -21.030951 0.190256 -125.371698 -62.335385 107.336754 0.000000 0.000000 0.000000 7.550665 9.786211 4.043077 47.449591 15.009758 -1.228157 -97.839585 71.588536 -70.513371 0.000000 0.000000 0.000000 
-0.005460 0.945551 -0.021532 -1.188621 7.285102 2.980638 6.489197 -0.169275 2.714186 -2.738549 0.293324 -10.163927 -1.426316 3.247004 12.232685 0.000000 0.000000 0.000000 -2.432804 -0.312746 4.023931 0.823154 -0.437527 -9.248663 -2.886194 -9.867265 14.069487 0.000000 0.000000 0.000000 -5.190178 0.067226 0.525863 4.173207 -0.225494 -25.347592 0.051843 -3.136073 30.512283 -2.283044 3.294850 -32.562863 0.000000 0.000000 0.000000 -16.209729 -2.816551 0.269569 -48.834898 -21.037216 0.170412 -126.598879 -62.256581 108.679657 0.000000 0.000000 0.000000 7.657121 10.218680 4.256640 47.586722 14.410083 -1.460420 -97.030399 74.217853 -72.473438 0.000000 0.000000 0.000000 
-0.004786 0.945237 -0.022108 -1.377955 7.387424 3.066993 6.602531 -0.188853 2.347639 -2.642470 0.292371 -9.818824 -1.382658 3.211141 11.939618 0.000000 0.000000 0.000000 -2.532779 -0.264570 3.537601 1.303962 -0.432911 -8.625028 -2.971499 -9.980029 13.874842 0.000000 0.000000 0.000000 -4.836704 0.063166 0.345689 4.345890 -0.275621 -25.122215 -0.310063 -3.473281 30.405377 -1.673580 2.940789 -32.474681 0.000000 0.000000 0.000000 -16.394708 -3.251119 0.537658 -49.030464 -20.603959 0.014052 -122.131767 -61.823414 102.723298 0.000000 0.000000 0.000000 7.826730 9.607947 3.982703 46.896219 14.608328 -1.413727 -96.184318 73.423283 -71.015657 0.000000 0.000000 0.000000 
